# xmcd
#
# Track frame offsets:
#	187
#	16770
#	30600
#	47812
#	64137
#	83195
#	95107
#	111385
#	126392
#	144352
#
# Disc length: 2155 seconds
#
# Revision: 2
# Processed by: cddbd v1.4PL0 Copyright (c) Steve Scherf et al.
# Submitted via: audiograbber 1.82.01
#
DISCID=8908690a
DTITLE=Reba McEntire - Reba
DYEAR=1988
DGENRE=Country
TTITLE0=So, So, So Long
TTITLE1=Sunday Kind Of Love
TTITLE2=New Fool At An Old Game
TTITLE3=You're The One I Dream About
TTITLE4=Silly Me
TTITLE5=Respect
TTITLE6=Do Right By Me
TTITLE7=I Know How He Feels
TTITLE8=Wish I Were Only Lonely
TTITLE9=Everytime You Touch Her
EXTD=MCA Records\nMCAD-42134\n# 7674-22134-2\nDDD
EXTT0=
EXTT1=
EXTT2=
EXTT3=
EXTT4=
EXTT5=
EXTT6=
EXTT7=
EXTT8=
EXTT9=
PLAYORDER=
